<?xml version="1.0" encoding="UTF-8"?><svg id="a" xmlns="http://www.w3.org/2000/svg" viewBox="0 0 128 40.27"><defs><style>.b{fill:#fff;}.c{fill:none;}</style></defs><g><path class="b" d="M8.85,5.13v3.12h-2.4v12.45H2.39V8.24H0v-3.12H8.85Z"/><path class="b" d="M17.65,15.09h-5.03v2.76c0,.58,.04,.95,.12,1.12s.24,.25,.48,.25c.29,0,.49-.11,.59-.33s.15-.65,.15-1.28v-1.68h3.68v.94c0,.79-.05,1.39-.15,1.82s-.33,.87-.7,1.36-.83,.84-1.39,1.08-1.26,.36-2.11,.36-1.54-.12-2.17-.36-1.12-.56-1.47-.98-.59-.87-.73-1.37-.2-1.22-.2-2.17v-3.72c0-1.12,.15-2,.45-2.64s.79-1.14,1.48-1.48,1.47-.51,2.37-.51c1.09,0,1.99,.21,2.7,.62s1.21,.96,1.49,1.64,.43,1.64,.43,2.88v1.69Zm-3.89-2.08v-.93c0-.66-.04-1.09-.11-1.28s-.21-.29-.43-.29c-.27,0-.44,.08-.5,.25s-.1,.6-.1,1.32v.93h1.13Z"/><path class="b" d="M29.45,13.3h-3.66v-1.47c0-.51-.04-.86-.12-1.04s-.24-.27-.46-.27-.37,.08-.45,.24-.12,.52-.12,1.08v6.02c0,.46,.06,.8,.17,1.02s.29,.34,.51,.34c.26,0,.44-.12,.53-.36s.14-.69,.14-1.35v-1.52h3.46c0,1.02-.04,1.78-.11,2.29s-.28,1.03-.64,1.57-.83,.94-1.42,1.21-1.3,.41-2.16,.41c-1.1,0-1.96-.19-2.61-.56s-1.09-.9-1.36-1.58-.4-1.64-.4-2.88v-3.62c0-1.08,.11-1.9,.33-2.45s.68-1.04,1.39-1.48,1.58-.65,2.6-.65,1.88,.21,2.6,.64,1.2,.97,1.43,1.62,.36,1.58,.36,2.78Z"/><path class="b" d="M35.72,5.91v3.5c.33-.31,.69-.54,1.08-.69,.39-.15,.8-.23,1.25-.23,.68,0,1.26,.17,1.74,.52s.77,.75,.87,1.2,.16,1.28,.16,2.48v8.8h-3.88V12.49c0-.74-.04-1.22-.11-1.43s-.24-.32-.5-.32c-.24,0-.4,.11-.48,.33s-.12,.65-.12,1.3v9.11h-3.88V5.91h3.88Z"/><path class="b" d="M47.75,8.72l-.07,1.18c.28-.47,.63-.82,1.03-1.05,.41-.23,.88-.35,1.41-.35,.67,0,1.21,.16,1.63,.47s.7,.71,.82,1.19,.18,1.27,.18,2.39v8.94h-3.88V12.64c0-.88-.03-1.41-.09-1.61s-.22-.29-.48-.29-.45,.11-.52,.33-.11,.81-.11,1.77v8.62h-3.88V8.72h3.95Z"/><path class="b" d="M70.61,13.3h-3.66v-1.47c0-.51-.04-.86-.12-1.04s-.24-.27-.46-.27-.37,.08-.45,.24-.12,.52-.12,1.08v6.02c0,.46,.06,.8,.17,1.02s.29,.34,.51,.34c.26,0,.44-.12,.53-.36s.14-.69,.14-1.35v-1.52h3.46c0,1.02-.04,1.78-.11,2.29s-.28,1.03-.64,1.57c-.36,.54-.83,.94-1.42,1.21s-1.3,.41-2.16,.41c-1.1,0-1.96-.19-2.61-.56s-1.09-.9-1.36-1.58-.4-1.64-.4-2.88v-3.62c0-1.08,.11-1.9,.33-2.45s.68-1.04,1.39-1.48,1.58-.65,2.6-.65,1.88,.21,2.6,.64,1.2,.97,1.43,1.62,.36,1.58,.36,2.78Z"/><path class="b" d="M77.88,13.43h-3.64v-.86c0-.99,.11-1.75,.34-2.28s.68-1.01,1.37-1.42,1.58-.62,2.67-.62c1.31,0,2.3,.23,2.97,.7s1.07,1.04,1.2,1.71,.2,2.07,.2,4.18v6.4h-3.78v-1.14c-.24,.46-.54,.8-.92,1.03-.37,.23-.82,.34-1.34,.34-.68,0-1.3-.19-1.87-.57s-.85-1.22-.85-2.5v-1.05c0-.96,.15-1.61,.45-1.95s1.05-.75,2.24-1.21c1.28-.5,1.96-.84,2.05-1.01s.13-.53,.13-1.06c0-.67-.05-1.1-.15-1.3s-.26-.3-.5-.3c-.26,0-.43,.08-.49,.25s-.1,.61-.1,1.32v1.34Zm1.23,1.75c-.62,.46-.98,.84-1.08,1.14s-.15,.75-.15,1.33c0,.66,.04,1.09,.13,1.28s.26,.29,.51,.29,.4-.08,.48-.23,.11-.55,.11-1.19v-2.62Z"/><path class="b" d="M89.62,5.91v15.57h-3.64V5.91h3.64Z"/><path class="b" d="M2.38,21.96h6.75v3.12h-2.7v2.95h2.53v2.96h-2.53v3.42h2.97v3.12H2.38v-15.57Z"/><path class="b" d="M19.29,21.96v15.57h-3.88v-.93c-.37,.39-.76,.67-1.17,.87-.41,.19-.84,.29-1.29,.29-.6,0-1.12-.16-1.57-.48s-.73-.68-.85-1.1-.19-1.1-.19-2.04v-5.97c0-.98,.06-1.68,.19-2.09s.41-.77,.86-1.08,.98-.47,1.61-.47c.48,0,.92,.09,1.32,.26,.4,.17,.76,.43,1.09,.78v-3.62h3.88Zm-3.88,6.02c0-.47-.04-.78-.12-.94s-.24-.24-.48-.24-.39,.07-.47,.22-.12,.47-.12,.97v6.25c0,.52,.04,.86,.12,1.02s.22,.25,.44,.25c.25,0,.42-.09,.5-.27s.12-.63,.12-1.34v-5.9Z"/><path class="b" d="M29.57,24.77v12.76h-3.95l.07-1.06c-.27,.43-.6,.75-1,.97-.39,.21-.85,.32-1.36,.32-.58,0-1.07-.1-1.45-.31s-.67-.48-.85-.82-.3-.69-.34-1.06-.07-1.1-.07-2.2v-8.61h3.88v8.68c0,.99,.03,1.58,.09,1.77s.23,.28,.5,.28c.29,0,.46-.1,.51-.29s.08-.81,.08-1.86v-8.59h3.88Z"/><path class="b" d="M39.55,29.59h-3.66v-1.47c0-.51-.04-.86-.12-1.04s-.24-.27-.46-.27-.37,.08-.45,.24-.12,.52-.12,1.08v6.02c0,.46,.06,.8,.17,1.02s.29,.34,.51,.34c.26,0,.44-.12,.53-.36s.14-.69,.14-1.35v-1.52h3.46c0,1.02-.04,1.78-.11,2.29s-.28,1.03-.64,1.57-.83,.94-1.42,1.21-1.3,.41-2.16,.41c-1.1,0-1.96-.19-2.61-.56s-1.09-.9-1.36-1.58-.4-1.64-.4-2.88v-3.62c0-1.08,.11-1.9,.33-2.45s.68-1.04,1.39-1.48,1.58-.65,2.6-.65,1.88,.21,2.6,.64,1.2,.97,1.43,1.62,.36,1.58,.36,2.78Z"/><path class="b" d="M44.18,29.71h-3.64v-.86c0-.99,.11-1.75,.34-2.28s.68-1.01,1.37-1.42,1.58-.62,2.67-.62c1.31,0,2.3,.23,2.97,.7s1.07,1.04,1.2,1.71,.2,2.07,.2,4.18v6.4h-3.78v-1.14c-.24,.46-.54,.8-.92,1.03-.37,.23-.82,.34-1.34,.34-.68,0-1.3-.19-1.87-.57s-.85-1.22-.85-2.5v-1.05c0-.96,.15-1.61,.45-1.95s1.05-.75,2.24-1.21c1.28-.5,1.96-.84,2.05-1.01s.13-.53,.13-1.06c0-.67-.05-1.1-.15-1.3s-.26-.3-.5-.3c-.26,0-.43,.08-.49,.25s-.1,.61-.1,1.32v1.34Zm1.23,1.75c-.62,.46-.98,.84-1.08,1.14s-.15,.75-.15,1.33c0,.66,.04,1.09,.13,1.28s.26,.29,.51,.29,.4-.08,.48-.23,.11-.55,.11-1.19v-2.62Z"/><path class="b" d="M54.73,23.07v2.01h1.05v2.02h-1.05v6.83c0,.84,.04,1.31,.13,1.4s.45,.14,1.08,.14v2.06h-1.57c-.88,0-1.52-.04-1.89-.11s-.71-.24-1-.51-.47-.57-.54-.91-.11-1.15-.11-2.42v-6.48h-.84v-2.02h.84v-2.01h3.89Z"/><path class="b" d="M60.63,7.55v2.03h-4v-2.03h4Zm0,3.09v26.9h-4V10.63h4Z"/><path class="b" d="M70.81,29.25v3.12c0,1.15-.06,1.99-.17,2.52s-.36,1.04-.74,1.5-.87,.81-1.46,1.03-1.27,.33-2.04,.33c-.86,0-1.59-.09-2.18-.28-.6-.19-1.06-.47-1.39-.86s-.57-.84-.71-1.38-.21-1.35-.21-2.44v-3.27c0-1.19,.13-2.11,.38-2.78s.72-1.2,1.38-1.61c.67-.4,1.52-.61,2.56-.61,.87,0,1.62,.13,2.24,.39s1.11,.6,1.45,1.01,.57,.85,.7,1.29,.19,1.12,.19,2.02Zm-3.88-.96c0-.65-.04-1.07-.11-1.24s-.22-.25-.45-.25-.38,.08-.46,.25-.12,.58-.12,1.24v5.76c0,.6,.04,1,.12,1.18s.23,.27,.45,.27,.38-.08,.46-.25,.11-.53,.11-1.08v-5.88Z"/><path class="b" d="M76.04,24.77l-.07,1.18c.28-.47,.63-.82,1.03-1.05,.41-.23,.88-.35,1.41-.35,.67,0,1.21,.16,1.63,.47s.7,.71,.82,1.19,.18,1.27,.18,2.39v8.94h-3.88v-8.84c0-.88-.03-1.41-.09-1.61s-.22-.29-.48-.29-.45,.11-.52,.33-.11,.81-.11,1.77v8.62h-3.88v-12.76h3.95Z"/><path class="b" d="M95.01,21.96v15.57h-3.55l-2.11-7.08v7.08h-3.38v-15.57h3.38l2.27,7.01v-7.01h3.38Z"/><path class="b" d="M105.32,31.38h-5.03v2.76c0,.58,.04,.95,.12,1.12s.24,.25,.48,.25c.29,0,.49-.11,.59-.33s.15-.65,.15-1.28v-1.68h3.68v.94c0,.79-.05,1.39-.15,1.82s-.33,.87-.7,1.36-.83,.84-1.39,1.08-1.26,.36-2.11,.36-1.54-.12-2.17-.36-1.12-.56-1.47-.98-.59-.87-.73-1.37-.2-1.22-.2-2.17v-3.72c0-1.12,.15-2,.45-2.64s.79-1.14,1.48-1.48,1.47-.51,2.37-.51c1.09,0,1.99,.21,2.7,.62s1.21,.96,1.49,1.64,.43,1.64,.43,2.88v1.69Zm-3.89-2.08v-.93c0-.66-.04-1.09-.11-1.28s-.21-.29-.43-.29c-.27,0-.44,.08-.5,.25s-.1,.6-.1,1.32v.93h1.13Z"/><path class="b" d="M119.14,24.77l-1.55,12.76h-4.21c-.23-1.56-.5-3.61-.81-6.16-.11,1.12-.25,2.25-.44,3.39l-.43,2.77h-4.22l-1.65-12.76h3.35c.03,.33,.31,2.77,.85,7.31,.04-.47,.33-2.9,.87-7.31h3.21l.79,7.31c.12-2.13,.42-4.57,.89-7.31h3.34Z"/><path class="b" d="M127.7,28.85h-3.44v-.69c0-.59-.03-.96-.1-1.12s-.24-.24-.5-.24c-.22,0-.38,.07-.49,.22s-.16,.36-.16,.65c0,.39,.03,.68,.08,.86s.22,.38,.49,.6,.83,.54,1.68,.95c1.13,.55,1.87,1.07,2.22,1.56s.53,1.2,.53,2.12c0,1.04-.13,1.82-.4,2.35s-.72,.94-1.35,1.22-1.39,.43-2.28,.43c-.99,0-1.83-.15-2.53-.46s-1.18-.72-1.45-1.25-.39-1.32-.39-2.38v-.62h3.44v.81c0,.69,.04,1.13,.13,1.34s.26,.31,.51,.31c.28,0,.47-.07,.58-.21s.16-.43,.16-.87c0-.61-.07-.99-.21-1.14-.15-.15-.9-.61-2.26-1.37-1.14-.64-1.84-1.22-2.09-1.75s-.37-1.14-.37-1.86c0-1.02,.13-1.77,.4-2.25s.73-.86,1.37-1.12,1.39-.39,2.25-.39,1.57,.11,2.16,.32,1.05,.5,1.37,.85,.51,.68,.58,.98,.1,.77,.1,1.41v.74Z"/></g><g><path class="c" d="M98.25,24.18V2.86h24.14V24.18h-24.14Zm.29-13.26c0,.42,.05,.87,.21,1.29,.1,.27,.22,.52,.39,.75,.13,.19,.31,.32,.53,.37,.08,.02,.15,.04,.23,.06,2.68,.73,5.36,1.46,8.04,2.2,.36,.1,.71,.19,1.07,.28,.04,.01,.07,0,.08-.04,.03-.07,.02-.11-.05-.14-.06-.02-.11-.04-.17-.06-.77-.21-1.54-.43-2.31-.64-2-.55-4.01-1.11-6.01-1.66-.25-.07-.5-.14-.75-.2-.16-.04-.3-.11-.39-.26-.13-.22-.26-.43-.37-.66-.28-.57-.34-1.18-.22-1.8,.07-.41,.23-.79,.51-1.1,.21-.23,.46-.34,.77-.31,.1,0,.2,.03,.3,.05,1.84,.38,3.69,.75,5.53,1.13,2.07,.42,4.15,.85,6.22,1.27,.12,.02,.25,.03,.35,.08,.24,.12,.49,.15,.74,.22,.06,.02,.12,.01,.18,.02,.05,0,.1-.02,.14-.05,1.55-1.21,3.1-2.42,4.64-3.63,1.09-.85,2.18-1.71,3.27-2.56,.03-.02,.05-.05,.06-.08,.02-.05,.02-.09-.05-.11-.07-.02-.14-.05-.21-.06-.84-.17-1.68-.34-2.53-.51-1.43-.29-2.85-.57-4.28-.86-1.17-.24-2.34-.47-3.51-.71-.47-.1-.91-.05-1.34,.17-.18,.09-.35,.18-.53,.28-.43,.23-.83,.5-1.29,.68-.03,0-.05,.02-.07,.04-2.67,1.44-5.34,2.88-8,4.32-.08,.04-.16,.08-.24,.11-.12,.05-.23,.11-.31,.21-.23,.27-.42,.57-.52,.92-.09,.33-.13,.66-.13,1.03Zm10.25,1.75v-.02c.24,.04,.47,.06,.7,.11,1.13,.23,2.26,.46,3.39,.69,.03,0,.07,.01,.09,0,.03-.01,.08-.04,.08-.07,.01-.12,.02-.24,.01-.36,0-.13,0-.13-.14-.16-.47-.1-.95-.18-1.42-.29-.47-.11-.93-.25-1.39-.36-.89-.22-1.78-.43-2.67-.64-.03,0-.06-.03-.1-.05v-.02s.09-.01,.13,0c.21,.03,.42,.05,.62,.09,.8,.16,1.61,.32,2.41,.49,.49,.1,.98,.23,1.47,.33,.36,.08,.72,.14,1.05,.32h.03c-.03-.14-.05-.28-.08-.43-.01-.06-.04-.08-.1-.1-1.07-.24-2.13-.49-3.2-.72-3.05-.67-6.11-1.33-9.16-2-.25-.05-.5-.1-.74-.15-.04,0-.08-.02-.12,.02-.05,.06-.1,.13-.08,.22,.02,.08,.1,.09,.17,.11h.03c.18,.05,.35,.08,.53,.12,1.09,.23,2.18,.46,3.24,.78,.29,.09,.59,.17,.88,.25,.04,.01,.09,.02,.1,.09-.02,0-.04,0-.05,0-1.61-.36-3.23-.72-4.84-1.09-.14-.03-.24,0-.34,.09-.07,.06-.1,.14-.1,.23,0,.05,.02,.08,.07,.09,.68,.14,1.37,.28,2.05,.43,1.34,.29,2.68,.58,4.01,.88,.24,.05,.48,.12,.71,.18,.05,.01,.09,.02,.11,.09-.1-.01-.19-.03-.28-.04-1.11-.21-2.22-.41-3.33-.62-1.01-.19-2.01-.41-3.01-.69-.13-.04-.26-.06-.4-.09-.03,.15-.09,.29-.08,.44,0,.04,.01,.06,.06,.07,.44,.1,.88,.21,1.32,.32,.81,.19,1.61,.39,2.42,.56,.63,.13,1.26,.24,1.9,.36,1.36,.26,2.69,.62,4.02,1.01,.04,.01,.08,.03,.09,.09-.02,0-.04,0-.06,0-.59-.13-1.17-.25-1.76-.38-1.14-.26-2.29-.51-3.44-.71-.92-.16-1.84-.36-2.75-.61-.57-.16-1.12-.36-1.7-.49-.03,0-.06-.01-.1-.02-.05,.15-.05,.29-.02,.43,.01,.05,.03,.09,.09,.11,.07,.02,.13,.05,.2,.07,1.13,.33,2.27,.61,3.41,.88,.82,.2,1.64,.38,2.44,.64,.23,.07,.47,.15,.7,.22,.05,.01,.1,.03,.11,.1l-.1-.03c-.95-.24-1.9-.48-2.86-.71-1.26-.3-2.53-.56-3.77-.96-.05-.02-.1-.01-.18-.02,.05,.15,.1,.28,.14,.4,.01,.05,.04,.06,.09,.07,.33,.08,.66,.15,.99,.24,2.87,.78,5.74,1.54,8.6,2.38,.04,.01,.08,.02,.12,.02,.07,0,.1-.03,.1-.1,0-.04,0-.08,0-.12,0-.11-.01-.22-.02-.33,0-.05-.03-.07-.08-.09-.1-.03-.21-.06-.31-.1-.23-.08-.46-.16-.69-.23-.02,0-.04-.02-.06-.03,.39,.03,.76,.18,1.15,.21,.02-.12,.04-.24,.05-.35,.02-.21,.04-.42,.11-.62,.01-.04,.01-.09,.02-.14,0-.04-.01-.06-.05-.07-.12-.04-.24-.08-.36-.13-.03-.01-.06-.04-.09-.06Zm4.58,.76s.04-.03,.05-.04c.16-.12,.32-.25,.47-.37,.55-.44,1.12-.83,1.74-1.16,.04-.02,.08-.03,.11,.01-.02,.02-.04,.04-.05,.05-.41,.32-.82,.65-1.24,.97-.37,.29-.74,.57-1.1,.85-.02,.01-.04,.04-.04,.06,0,.11,.01,.22,.02,.35,.07-.05,.14-.09,.2-.13,.14-.1,.28-.21,.42-.31,.07-.05,.15-.09,.24-.1-.02,.08-.07,.12-.12,.16-.23,.17-.46,.34-.69,.51-.02,.02-.04,.05-.04,.08,0,.2,0,.39,0,.59,0,.03,.01,.07,.03,.07,.02,0,.06,0,.08-.01,.29-.2,.58-.38,.86-.59,.77-.58,1.53-1.18,2.3-1.77,.18-.14,.37-.27,.55-.4,.04-.03,.07-.04,.11,0-.02,.02-.03,.03-.05,.05-.68,.59-1.36,1.17-2.04,1.76-.32,.28-.65,.55-1.02,.78-.24,.15-.48,.27-.72,.41-.04,.02-.1,.07-.1,.11,0,.19,0,.38,.01,.57,0,.1,.03,.19,.05,.3,.04-.02,.06-.03,.08-.05,.13-.1,.26-.2,.38-.31,2.32-1.95,4.64-3.9,6.96-5.85,.11-.09,.21-.18,.31-.27,.06-.05,.09-.12,.09-.2,0-.14,0-.28,0-.42,0-.03-.02-.06-.04-.08-.01,0-.05,0-.07,.02-.27,.21-.53,.42-.81,.62-.42,.31-.84,.6-1.26,.9-.03,.02-.07,.04-.09-.01,.02-.02,.03-.03,.05-.05,.28-.23,.56-.47,.85-.7,.45-.37,.91-.73,1.32-1.15,.02-.02,.04-.06,.04-.1,0-.21,0-.43,0-.64,0-.03-.02-.06-.04-.08-.04-.03-.06,0-.08,.03-.55,.5-1.12,.99-1.71,1.45-.28,.22-.55,.44-.85,.62-.02,.01-.04,.02-.06,.03,.01-.03,.03-.05,.05-.07,.32-.29,.64-.58,.97-.86,.56-.5,1.12-1,1.68-1.49,.03-.03,.05-.06,.05-.1,0-.16,0-.31,0-.47,0-.04-.02-.08-.04-.13-.08,.05-.14,.09-.19,.14-.15,.12-.3,.25-.45,.37-.53,.42-1.06,.83-1.59,1.25-.05,.04-.12,.08-.17,.11-.01,0-.03,0-.04,.01v-.02c.08-.09,.16-.18,.25-.26,.7-.59,1.41-1.17,2.12-1.76,.14-.11,.17-.3,.08-.46-.1,.07-.19,.14-.29,.21-1.15,.92-2.3,1.85-3.46,2.77-1.16,.93-2.32,1.86-3.47,2.8-.2,.16-.41,.28-.67,.28-.01,0-.04,.01-.04,.02,0,.1-.02,.19,.06,.27,.02,.03,.04,.03,.07,0,.07-.06,.15-.11,.22-.16,.73-.58,1.48-1.13,2.24-1.66,.11-.08,.24-.14,.35-.2,.02-.01,.04-.01,.06-.02-.01,.05-.03,.09-.06,.11-.23,.2-.46,.41-.7,.6-.7,.55-1.4,1.1-2.17,1.55-.01,0-.03,.02-.03,.03-.07,.2-.04,.39,.05,.57Zm-13.96,6.7c0,.18,.04,.24,.21,.26,.37,.06,.74,.11,1.11,.18,.91,.16,1.82,.33,2.73,.5,1.32,.24,2.64,.48,3.96,.72,1.24,.23,2.48,.45,3.72,.68,1.34,.25,2.69,.49,4.03,.74,.25,.05,.5,.11,.76,.1,.11,0,.21,0,.32,0,.01-.12,.02-.22-.01-.33-.01-.04-.04-.06-.08-.07-.46-.07-.92-.14-1.38-.22-.06,0-.12-.05-.17-.07v-.03c.06,0,.12,0,.17,0,.4,.04,.8,.08,1.19,.12,.07,0,.14,0,.21,.01,.04,0,.07-.02,.07-.07,0-.04,0-.07-.05-.08-.09-.02-.18-.05-.27-.06-.44-.07-.88-.13-1.32-.2-.66-.11-1.32-.24-1.98-.36-.06-.01-.12-.04-.19-.06v-.03c.24,.02,.48,.02,.71,.05,.65,.09,1.29,.18,1.94,.27,.37,.05,.75,.1,1.12,.16,.05,0,.08,0,.08-.06,0-.07,.03-.15,.03-.22,0-.12,.01-.1-.1-.12-.77-.13-1.53-.25-2.3-.38-.35-.06-.71-.15-1.06-.22-.04,0-.08-.03-.07-.09,.02,0,.04,0,.05,0,.28,.04,.55,.08,.83,.12,.86,.12,1.72,.24,2.58,.36,.1,.01,.2-.07,.19-.18,0-.05-.02-.07-.08-.07-.07,.01-.15,.02-.22,.01-.52-.09-1.04-.18-1.56-.26-1.06-.18-2.11-.35-3.17-.52-.86-.14-1.73-.28-2.59-.42-.89-.14-1.79-.29-2.68-.44-.92-.15-1.84-.3-2.76-.45-1.12-.18-2.24-.37-3.37-.55-.19-.03-.37-.06-.56-.07-.12-.01-.16,.06-.15,.18,.09,.02,.19,.03,.28,.05,1.11,.19,2.23,.37,3.34,.56,1.22,.21,2.43,.5,3.62,.84,.02,0,.04,.01,.06,.02v.02s-.08,0-.12,0c-.8-.15-1.6-.31-2.4-.46-.79-.15-1.58-.28-2.37-.42-.69-.12-1.37-.24-2.06-.36-.12-.02-.25-.05-.37-.07-.05,.09-.05,.18-.03,.32,0,.05,.03,.08,.08,.09,.18,.04,.37,.07,.55,.11,1.08,.23,2.16,.44,3.25,.62,.96,.15,1.91,.31,2.87,.46,.81,.13,1.62,.26,2.43,.39,.18,.03,.37,.08,.56,.11-.07,.04-.14,.04-.23,.03-.85-.12-1.7-.23-2.55-.35-1.04-.15-2.08-.3-3.11-.46-1.15-.17-2.29-.41-3.42-.7-.09-.02-.18-.05-.27-.07-.07-.02-.1,.01-.09,.08,0,.04,0,.08,.02,.11,0,.02,.03,.05,.05,.05,.08,.03,.16,.05,.24,.07,.31,.08,.63,.16,.93,.29,.02,0,.04,.02,.06,.03-.41,.02-.78-.12-1.18-.18Zm17.11,1.04s-.04-.01-.05-.01c-.27-.05-.55-.09-.82-.14-1.28-.22-2.56-.44-3.85-.66-1.09-.19-2.18-.37-3.26-.56-1.09-.19-2.17-.37-3.26-.56-.96-.17-1.92-.33-2.89-.5-.94-.16-1.88-.32-2.82-.48-.18-.03-.36-.06-.53-.08-.17-.01-.25,.06-.28,.23,0,.02,0,.05,0,.07-.01,.32-.03,.64-.03,.96,0,.36,.04,.72,.13,1.08,.04,.14,.1,.25,.24,.3,.14,.05,.29,.1,.43,.13,1.02,.19,2.05,.36,3.07,.54,.99,.17,1.98,.35,2.96,.52,1.21,.21,2.42,.43,3.63,.64,1.12,.2,2.24,.4,3.37,.59,.55,.1,1.09,.19,1.64,.29,.6,.11,1.21,.23,1.81,.34,.1,.02,.21,.01,.32,.02-.01-.09-.03-.15-.03-.22,0-.06-.03-.08-.09-.08-.23-.02-.46-.02-.69-.06-.65-.11-1.31-.23-1.96-.35-1.28-.23-2.56-.46-3.85-.7-1.17-.21-2.34-.43-3.52-.65-1.27-.23-2.54-.47-3.82-.7-.97-.17-1.93-.39-2.9-.51-.1-.01-.18-.05-.24-.14-.09-.13-.16-.27-.18-.43-.04-.3-.06-.61-.08-.91-.02-.21,.04-.39,.2-.54,.02-.02,.04-.05,.05-.07,.02-.06,.05-.06,.1-.05,.14,.03,.29,.07,.44,.09,.96,.16,1.92,.32,2.88,.48,1.5,.25,3.01,.49,4.51,.73,1.24,.2,2.48,.41,3.73,.61,1.72,.28,3.44,.56,5.15,.84,.16,.03,.32,0,.48-.06Zm-16.12-4.44c.02,.12,.04,.23,.07,.34,.03,.14,.12,.21,.26,.23,.15,.02,.29,.04,.44,.07,.96,.17,1.92,.33,2.87,.5,1.15,.2,2.31,.4,3.46,.6,.94,.16,1.89,.32,2.83,.48,.09,.02,.19,.03,.3,.05-.06-.09-.11-.17-.15-.25-.06-.09-.09-.2-.17-.26-.08-.06-.2-.07-.3-.1-.08-.03-.16-.06-.24-.1v-.02l.45,.05c-.1-.2-.13-.4-.25-.59-.09,.08-.17,.14-.25,.22-.07,.07-.14,.15-.21,.23,0,.01-.02,.02-.03,.03-.1,.06-.2,.12-.3,.17-.09,.04-.19,.07-.28,.1-.08,.02-.15-.07-.12-.15,.04-.1,.1-.2,.13-.3,.04-.11,.06-.23,.09-.35,.01-.06-.01-.09-.08-.09-.53-.07-1.05-.15-1.58-.21-1.04-.13-2.09-.24-3.13-.37-1.13-.14-2.24-.35-3.34-.65-.16-.04-.32-.08-.48-.13-.04,.11-.02,.21,0,.31,0,.04,.02,.06,.06,.07,.17,.04,.34,.08,.51,.12,.93,.22,1.86,.46,2.81,.62,0,0,.02,0,.02,.01-.04,.01-.07,.02-.1,.01-.12-.01-.24-.02-.36-.04-.42-.06-.85-.11-1.27-.2-.45-.09-.9-.22-1.35-.34-.1-.03-.2-.06-.32-.05Zm-1.4,1.16v.02s.07,.01,.1,.02c1.16,.2,2.33,.4,3.49,.6,1.08,.19,2.17,.37,3.25,.56,1.09,.19,2.18,.37,3.27,.56,1.01,.17,2.02,.35,3.03,.52,1.16,.2,2.32,.4,3.49,.6,.33,.06,.66,.11,.98,.17,.02,0,.06,0,.06,0,.03-.06,.08-.12,.06-.2-.04-.14,.02-.23,.15-.29,.05-.02,.1-.04,.13-.07,.07-.07,.14-.14,.19-.22,.7-.99,1.39-1.99,2.09-2.98,.83-1.19,1.67-2.38,2.5-3.57,.03-.04,.05-.09,.07-.14,.01-.03,0-.05-.03-.06-.07-.02-.14-.04-.21-.05-.12-.02-.24-.01-.35,.05-.02,.01-.04,.04-.04,.06-.02,.14-.04,.27-.05,.41-.01,.17-.07,.31-.17,.43-1.47,1.81-2.95,3.62-4.42,5.43-.22,.27-.44,.55-.72,.77-.06,.04-.11,.07-.18,.07-.05,0-.09,0-.14-.01-1.07-.18-2.13-.37-3.2-.55-.95-.16-1.9-.32-2.85-.48-1.12-.19-2.25-.38-3.37-.57-1.02-.17-2.04-.35-3.06-.52-.87-.15-1.74-.3-2.61-.45-.2-.04-.38-.13-.52-.28-.08-.09-.14-.2-.2-.31-.03-.06-.07-.08-.12-.04-.13,.1-.25,.2-.37,.31-.09,.08-.17,.16-.25,.25Zm20.25-3.77c-.02-.07,0-.11,.03-.15,.02-.03,.05-.06,.07-.09,.35-.43,.7-.86,1.05-1.28,.03-.04,.06-.08,.08-.12,.06-.1,.07-.2,.05-.32,0-.02-.02-.04-.03-.05-.02,.01-.03,.02-.05,.03,0,0-.01,.01-.02,.02-1.44,1.71-2.89,3.42-4.33,5.13-.09,.11-.05,.2-.04,.31,.09-.09,.18-.18,.27-.27,.34-.37,.68-.74,1.02-1.1,.06-.07,.14-.12,.21-.18l.02,.02s-.02,.04-.04,.06c-.08,.1-.16,.2-.24,.3-.42,.46-.84,.93-1.26,1.39-.07,.07-.13,.15-.18,.23-.05,.07-.04,.13,0,.19,.02-.02,.03-.03,.05-.05,.25-.28,.49-.55,.74-.83,.41-.46,.83-.92,1.31-1.32,.02-.02,.04-.03,.06-.05,0,.03-.02,.04-.03,.06-.2,.24-.39,.49-.6,.73-.5,.57-1.01,1.13-1.51,1.7-.07,.07-.12,.16-.17,.25-.05,.11-.06,.22-.02,.36,.06-.06,.11-.1,.16-.15,.06-.06,.11-.13,.17-.19,.05-.05,.12-.08,.21-.1-.14,.17-.27,.32-.4,.48-.06,.07-.12,.14-.18,.22-.06,.09-.04,.2,.05,.27,.08-.09,.16-.17,.23-.26,1.12-1.32,2.25-2.64,3.37-3.96,.33-.39,.67-.78,.99-1.17,.1-.12,.17-.26,.25-.39,.01-.02,.02-.06,.02-.08-.06-.28-.05-.55-.05-.83,0-.06-.02-.12-.04-.19-.03,.03-.05,.04-.06,.06-.08,.09-.17,.18-.25,.27-.23,.27-.46,.54-.69,.81-.08,.09-.16,.17-.25,.26Zm-12.85,2.54c-.15-.02-.28-.03-.42-.05-.59-.08-1.17-.16-1.76-.26-.73-.12-1.46-.24-2.18-.38-.47-.09-.94-.22-1.41-.33-.08-.02-.16-.01-.24-.01-.02,0-.04,.02-.05,.03-.02,.14-.05,.28,0,.42,.01,.03,.04,.05,.07,.06,.49,.1,.99,.21,1.48,.3,.91,.18,1.83,.28,2.75,.42,.75,.11,1.49,.21,2.24,.32,.69,.1,1.37,.21,2.06,.32,.03,0,.05,0,.06-.03,.05-.13,.07-.26,.05-.4,0-.05-.03-.07-.07-.09-.06-.02-.13-.04-.19-.06-.03-.01-.06-.04-.1-.05v-.02c.1,0,.18,0,.27,0,.03,0,.08-.02,.09-.05,.01-.07,.02-.14,0-.2,0-.05-.05-.08-.1-.09-1.3-.2-2.6-.41-3.9-.61-1.51-.24-3.03-.48-4.54-.72-.1-.02-.14,.02-.15,.12-.01,.09,.02,.14,.11,.16,.06,.02,.12,.03,.18,.05,1.38,.26,2.76,.52,4.14,.78,.5,.09,.99,.2,1.48,.3,.05,0,.09,.02,.11,.09Zm10.18,5.61l.02,.02s.08-.07,.11-.11c.1-.13,.19-.26,.29-.39,.02-.03,.06-.04,.09-.06h0l-.33,.58c.13,0,.16-.15,.28-.15-.01,.02-.02,.04-.03,.06-.14,.21-.28,.43-.43,.64-.06,.09-.08,.18-.06,.28,0,.03,.04,.06,.07,.07,.02,0,.07,0,.08-.03,.07-.08,.13-.16,.19-.25,1.55-2.31,3.1-4.62,4.65-6.94,.06-.09,.11-.19,.12-.3,.01-.13,.03-.26,.04-.39,0-.08,.02-.17,.02-.25,0-.04-.01-.08-.06-.09-.02,0-.05,.02-.06,.04-.11,.15-.21,.3-.31,.44-.38,.52-.76,1.04-1.14,1.57-.03,.04-.06,.08-.12,.08,.02-.06,.04-.11,.07-.16,.42-.61,.85-1.21,1.27-1.81,.12-.17,.23-.35,.34-.53,.1-.15,.1-.32,.06-.51-.08,.11-.15,.2-.22,.3-1.32,1.89-2.64,3.77-3.96,5.66-.29,.42-.58,.84-.82,1.29-.01,.02-.02,.05-.03,.07,.08,.02,.12-.03,.16-.08,.56-.83,1.12-1.66,1.69-2.49,.07-.11,.16-.21,.25-.31,.04-.05,.1-.09,.15-.14h.02c-.03,.07-.06,.13-.09,.18-.65,.96-1.29,1.92-1.94,2.88-.07,.1-.14,.19-.22,.27-.16,.16-.18,.36-.17,.57Zm-5.95-3.65c0-.07,.02-.14,.03-.2,.04-.38,.07-.77,.12-1.15,.09-.71,.16-1.43,.18-2.15,0-.41,.02-.83,.08-1.24,.02-.15,.02-.31,.03-.47,0-.05-.02-.08-.08-.1-.27-.07-.54-.15-.81-.22-.2-.05-.41-.08-.62-.12-.04,0-.06,0-.07,.04-.01,.05-.03,.1-.04,.15-.04,.29-.09,.59-.1,.88-.02,.4,0,.8,0,1.2,0,.44,.04,.88-.03,1.32-.08,.45-.1,.92-.21,1.37-.01,.04,0,.09-.01,.15,.07-.04,.13-.07,.19-.11,.13-.1,.25-.21,.37-.31,.09-.07,.18-.14,.27-.21,.09-.06,.15-.04,.2,.05,.02,.03,.03,.06,.04,.09,.03,.1,.07,.21,.1,.31,.06,.19,.12,.37,.19,.56,.03,.08,.08,.14,.18,.15Zm-1.6-2.39v-.04c-.08-.03-.17-.07-.26-.08-.47-.08-.94-.15-1.41-.23-1-.17-2-.34-3-.51-1.19-.2-2.37-.4-3.56-.6-.23-.04-.46-.07-.69-.03-.1,.02-.12,.04-.13,.13-.06,.34-.08,.67-.07,1.01,0,.17,.03,.34,.02,.5-.03,.35,.04,.68,.13,1.01,.06,.19,.19,.3,.38,.33,.23,.04,.45,.07,.68,.11,1.49,.25,2.98,.51,4.47,.76,1.49,.25,2.98,.51,4.47,.77,1.77,.3,3.53,.61,5.3,.91,.1,.02,.2,0,.3,0-.01-.13-.1-.16-.21-.18-.65-.11-1.3-.23-1.96-.34-1.16-.2-2.33-.4-3.49-.6-1.02-.17-2.04-.35-3.05-.52-1.16-.2-2.31-.4-3.47-.59-.93-.16-1.86-.33-2.79-.48-.24-.04-.39-.17-.45-.4-.07-.29-.11-.58-.12-.87-.01-.41-.02-.83-.03-1.24,0-.08,.02-.12,.1-.14,.02,0,.04,0,.06,0,.1,0,.21,0,.31,.02,.81,.13,1.62,.26,2.44,.39,.9,.14,1.8,.28,2.71,.42,1.01,.16,2.01,.32,3.02,.48,.1,.02,.2,.01,.3,.02Zm6.43,2.43s.01-.04,.02-.06c.03-.13,.05-.26,.08-.39,.01-.05,0-.08-.05-.09-.14-.03-.27-.06-.41-.08-1.08-.18-2.15-.35-3.23-.52-.26-.04-.52-.08-.78-.12-.11-.02-.14,0-.16,.11,0,.01,0,.03,0,.04-.02,.25-.03,.5-.05,.75-.01,.15,0,.16,.15,.19h0l.56,.09c1.17,.19,2.34,.38,3.51,.57,.06,0,.11,.02,.17,.03,.08,0,.1,0,.12-.07,.04-.1,.03-.19,.03-.29,0-.04-.02-.06-.06-.06-.17-.03-.35-.05-.52-.08-1.06-.22-2.12-.41-3.2-.56-.11-.02-.22-.06-.33-.09v-.03s.08,0,.11,0c.46,0,.91,.07,1.36,.15,.75,.14,1.5,.29,2.24,.44,.15,.03,.29,.05,.44,.08Zm-.62-2s.06,.02,.08,.02c.38,.07,.76,.14,1.13,.22,.05,.01,.08,0,.12-.04,1.35-1.61,2.69-3.22,4.04-4.83l.05-.06-.05-.04s-.04,.03-.06,.05c-.75,.65-1.49,1.3-2.24,1.95-.99,.86-1.98,1.73-2.97,2.59-.04,.04-.07,.09-.11,.14Zm7.28-7c-.17-.11-.35-.16-.53-.21-.05-.01-.08,.02-.07,.07,0,.05,.01,.1,.01,.16,0,.03-.01,.06-.03,.08-.17,.16-.35,.32-.53,.47-1.94,1.64-3.89,3.27-5.83,4.91-.51,.43-1.02,.86-1.53,1.29-.07,.06-.13,.12-.21,.2,.1,.03,.19,.05,.27,.08,.05,.02,.08,0,.12-.03,2.76-2.32,5.51-4.64,8.27-6.96,.02-.02,.04-.03,.06-.05Zm-22.79,2.65l-.02,.02c.04,.09,.07,.18,.11,.27,.05,.09,.12,.15,.22,.19,.16,.05,.33,.11,.49,.16,2.89,.75,5.78,1.5,8.67,2.25,.1,.03,.2,.04,.31,.06,0-.07,.02-.12,.03-.18,0-.11-.04-.16-.15-.19-.83-.2-1.67-.38-2.5-.59-2.23-.55-4.43-1.16-6.62-1.84-.18-.05-.36-.1-.54-.15Zm6.61,3.07c0-.05-.02-.08-.06-.09-.04-.01-.08-.03-.11-.04-1.52-.41-3.03-.83-4.55-1.24-.2-.05-.4-.1-.6-.15-.02,0-.06,0-.07,.01-.08,.07-.16,.15-.23,.23-.05,.06-.08,.13-.1,.21-.02,.09,0,.12,.09,.13,.41,.07,.82,.14,1.23,.2,1.18,.2,2.36,.39,3.55,.59,.28,.05,.57,.09,.86,.14Zm5.29-.54s-.01,.04-.01,.06c-.03,.29-.04,.58-.02,.87,0,.04,.03,.05,.06,.06,.6,.16,1.2,.31,1.81,.47,.02,0,.04,0,.07,.02,0-.04,0-.07,0-.09-.01-.27-.03-.54-.04-.81,0-.06-.02-.08-.08-.1-.48-.13-.95-.26-1.42-.38-.12-.03-.24-.06-.37-.08Zm-.28,3.78c-.06,0-.09,.04-.08,.1,.01,.07,.02,.14,.04,.21,.02,.13,.02,.13,.15,.15,1.21,.2,2.41,.41,3.62,.61,.22,.04,.43,.07,.65,.11,.08,.01,.11-.02,.1-.1,0-.06-.02-.12-.03-.17,0-.07-.04-.09-.1-.1-1.24-.23-2.49-.47-3.73-.7-.21-.04-.41-.07-.62-.11Zm4.69-1.35s-.03,0-.04-.01c-.42-.07-.83-.15-1.26-.15-.07,0-.11,.02-.14,.08-.14,.24-.34,.29-.58,.22-.32-.09-.63-.16-.94-.26-.46-.14-.93-.24-1.41-.28-.22-.02-.22-.02-.27,.2-.02,.08,0,.11,.08,.12,.37,.06,.75,.11,1.12,.17,.69,.11,1.38,.21,2.07,.32,.42,.06,.85,.11,1.24,.3,.04,.02,.1,0,.11-.04,.01-.06,.03-.13,.01-.2-.03-.13-.03-.25,0-.38,0-.02,0-.05,0-.08Zm6.49-1.58c-.1,.01-.14,.05-.17,.11-.04,.09-.08,.18-.13,.26-.03,.06-.07,.12-.12,.18-.09,.12-.19,.23-.28,.35-1.18,1.76-2.37,3.53-3.55,5.29-.29,.43-.58,.87-.87,1.3-.1,.16-.23,.29-.43,.31h-.01c0,.06,0,.11,.02,.16,0,.01,.03,.03,.05,.03,.2,.02,.2,.01,.32-.15,.02-.02,.03-.05,.05-.07,1.14-1.71,2.29-3.42,3.43-5.14,.38-.57,.76-1.14,1.14-1.71,.02-.03,.05-.07,.08-.09,.11-.08,.19-.18,.25-.3,.05-.09,.1-.18,.14-.27,.03-.08,.05-.17,.08-.27Zm-10.78-1.81c-.03,.16-.06,.31-.08,.46,0,.06,0,.13,0,.19,0,.05,.02,.07,.07,.08,.52,.17,1.05,.32,1.58,.42,.05,.01,.11,.01,.16,.02,0-.03,0-.04,0-.06,0-.2,0-.41-.01-.61,0-.05-.02-.06-.06-.07-.44-.11-.87-.23-1.31-.34l-.35-.09Zm9.02,.67l-.07,.08c-1.25,1.48-2.5,2.95-3.75,4.43-.22,.26-.44,.52-.67,.79-.05,.06-.04,.1,.02,.14,.06,.04,.12,.03,.18-.03,.05-.05,.1-.11,.14-.17,1.36-1.67,2.72-3.35,4.07-5.02,.04-.05,.08-.11,.12-.17l-.06-.05Zm-7.31-.81s-.03-.01-.05-.01c-.5-.1-1-.21-1.5-.31-.03,0-.06-.01-.08,0-.02,0-.05,.03-.06,.05-.03,.09-.03,.18,0,.28,.01,.03,.03,.05,.06,.06,.46,.1,.92,.2,1.39,.3,.08,.02,.16,.03,.24,.04v-.39Zm.59,3.38c.03-.14-.02-.21-.15-.25-.51-.13-1.01-.26-1.52-.39-.23-.06-.46-.13-.69-.19-.06-.02-.12,.02-.13,.06-.01,.04,.03,.11,.08,.13,.04,.01,.08,.02,.12,.03,.69,.19,1.38,.38,2.07,.57,.07,.02,.14,.02,.21,.03Zm.32-.23c.07,.03,.12,.04,.17,0,.04-.04,.09-.07,.13-.1,.46-.4,.91-.8,1.37-1.2,.24-.21,.46-.45,.72-.64,.04-.03,.07-.08,.11-.12v-.02c-.06,.02-.11,.04-.15,.07-.16,.13-.31,.26-.46,.39-.6,.49-1.19,1-1.79,1.5-.04,.03-.07,.08-.11,.13Zm2.61-2.18c.09-.02,.18-.09,.22-.19-.09,.02-.18,.1-.22,.19Zm3.96-.32c.11-.03,.18-.11,.19-.24l-.19,.24Zm-3.83,8.08h.02l.05-.14h-.03l-.05,.14Zm-10.54-7.12l-.14,.02c.05,.03,.1,.04,.14-.02Zm11.06-1.22l-.1,.09s.06,.01,.1-.09Z"/><path class="b" d="M98.53,10.92c0-.36,.04-.7,.13-1.03,.1-.35,.28-.65,.52-.92,.08-.1,.19-.16,.31-.21,.08-.03,.16-.07,.24-.11,2.67-1.44,5.34-2.88,8-4.32,.02-.01,.05-.03,.07-.04,.46-.17,.86-.45,1.29-.68,.18-.09,.35-.19,.53-.28,.43-.21,.87-.26,1.34-.17,1.17,.24,2.34,.47,3.51,.71,1.43,.29,2.85,.57,4.28,.86,.84,.17,1.68,.34,2.53,.51,.07,.01,.14,.04,.21,.06,.06,.02,.07,.06,.05,.11-.01,.03-.04,.06-.06,.08-1.09,.85-2.18,1.71-3.27,2.56-1.55,1.21-3.1,2.42-4.64,3.63-.04,.03-.09,.06-.14,.05-.06,0-.12,0-.18-.02-.25-.07-.5-.11-.74-.22-.11-.05-.23-.06-.35-.08-2.07-.42-4.15-.85-6.22-1.27-1.84-.38-3.69-.75-5.53-1.13-.1-.02-.2-.04-.3-.05-.31-.03-.56,.09-.77,.31-.28,.31-.44,.69-.51,1.1-.11,.62-.06,1.23,.22,1.8,.11,.23,.24,.44,.37,.66,.09,.14,.23,.22,.39,.26,.25,.07,.5,.13,.75,.2,2,.55,4.01,1.11,6.01,1.66,.77,.21,1.54,.43,2.31,.64,.06,.02,.12,.03,.17,.06,.07,.03,.08,.08,.05,.14-.02,.04-.04,.05-.08,.04-.36-.1-.71-.19-1.07-.28-2.68-.73-5.36-1.46-8.04-2.2-.08-.02-.15-.04-.23-.06-.23-.05-.4-.19-.53-.37-.17-.23-.29-.49-.39-.75-.16-.42-.21-.87-.21-1.29Zm15.49-.37h-.02s-.03,0-.04,0c-.18,.1-.36,.18-.54,.29-.24,.14-.48,.15-.74,.07-.09-.03-.18-.06-.28-.08-.4-.09-.81-.18-1.22-.26-.29-.06-.57-.14-.87-.15-.02,0-.04,0-.07,0,.05,.08,.12,.11,.2,.13,.6,.15,1.2,.3,1.8,.44,.27,.06,.54,.12,.81,.17,.21,.04,.39-.03,.54-.18,.13-.12,.26-.25,.38-.37,.02-.02,.02-.04,.03-.07Zm-11.75-2.74h0s-.02,0-.03,0c-.48,.17-.93,.39-1.35,.67-.07,.05-.12,.12-.18,.18,.11,.07,.22,.11,.34,.13,.36,.05,.73,.1,1.09,.15,.16,.02,.31,.04,.47,.06,.05,0,.1,0,.15,0,0-.02-.02-.02-.02-.02-.45-.1-.89-.26-1.36-.3-.11-.01-.22-.05-.33-.07v-.02l1.24-.76Zm8.31-4.46v.04s.05,.05,.08,.06c.1,.03,.19,.06,.29,.08,.65,.14,1.31,.28,1.96,.41,.07,.01,.14,0,.22,0l-.05-.04c-.15-.1-.32-.15-.49-.2-.59-.18-1.2-.27-1.8-.35-.07,0-.14,0-.21-.01Zm9.52,2.54c.22-.07,.42-.17,.57-.35,.06-.07,.05-.12-.05-.14-.32-.07-.64-.15-.96-.22-.14-.03-.29-.06-.43-.08-.01,0-.03,.02-.05,.02,.01,.01,.02,.04,.03,.04,.32,.1,.64,.2,.96,.3,.08,.03,.16,.05,.26,.07-.1,.08-.19,.15-.28,.22-.04,.03-.08,.06-.06,.13Zm-9.74-2.52v-.03c-.08,0-.16,0-.23,.01-.2,.07-.37,.19-.52,.34-.01,.01-.02,.03-.04,.05,.28-.1,.55-.19,.79-.37Z"/><path class="b" d="M108.78,12.67s.06,.04,.09,.06c.12,.04,.24,.09,.36,.13,.04,.01,.06,.03,.05,.07,0,.05,0,.09-.02,.14-.07,.2-.09,.41-.11,.62-.01,.11-.03,.23-.05,.35-.39-.03-.76-.18-1.15-.21,.02,.01,.04,.02,.06,.03,.23,.08,.46,.16,.69,.23,.1,.03,.21,.07,.31,.1,.05,.01,.07,.04,.08,.09,0,.11,.01,.22,.02,.33,0,.04,0,.08,0,.12,0,.07-.03,.1-.1,.1-.04,0-.08,0-.12-.02-2.86-.83-5.73-1.59-8.6-2.38-.33-.09-.66-.16-.99-.24-.05-.01-.07-.03-.09-.07-.04-.13-.09-.26-.14-.4,.07,0,.13,0,.18,.02,1.24,.4,2.51,.66,3.77,.96,.96,.23,1.91,.47,2.86,.71l.1,.03c-.01-.07-.06-.08-.11-.1-.23-.07-.47-.14-.7-.22-.8-.26-1.62-.44-2.44-.64-1.14-.28-2.28-.55-3.41-.88-.07-.02-.13-.05-.2-.07-.06-.02-.08-.05-.09-.11-.03-.14-.03-.29,.02-.43,.03,0,.07,.02,.1,.02,.58,.12,1.13,.32,1.7,.49,.9,.26,1.82,.45,2.75,.61,1.15,.2,2.3,.45,3.44,.71,.58,.13,1.17,.26,1.76,.38,.02,0,.04,0,.06,0,0-.06-.04-.08-.09-.09-1.33-.39-2.66-.76-4.02-1.01-.63-.12-1.27-.22-1.9-.36-.81-.17-1.62-.37-2.42-.56-.44-.1-.88-.21-1.32-.32-.04-.01-.06-.03-.06-.07,0-.15,.04-.29,.08-.44,.14,.03,.27,.05,.4,.09,.99,.28,2,.5,3.01,.69,1.11,.21,2.22,.42,3.33,.62,.09,.02,.19,.03,.28,.04-.02-.06-.07-.08-.11-.09-.24-.06-.47-.12-.71-.18-1.34-.29-2.68-.59-4.01-.88-.68-.15-1.37-.29-2.05-.43-.06-.01-.07-.04-.07-.09,0-.09,.03-.17,.1-.23,.1-.08,.2-.12,.34-.09,1.61,.37,3.23,.73,4.84,1.09,.01,0,.03,0,.05,0,0-.06-.05-.07-.1-.09-.29-.09-.59-.17-.88-.25-1.07-.32-2.15-.55-3.24-.78-.18-.04-.35-.08-.53-.11h-.03c-.07-.03-.15-.04-.17-.12-.02-.09,.03-.16,.08-.22,.03-.04,.08-.02,.12-.02,.25,.05,.5,.1,.74,.15,3.05,.66,6.11,1.33,9.16,2,1.07,.23,2.13,.48,3.2,.72,.06,.01,.09,.04,.1,.1,.02,.14,.05,.28,.08,.43h-.03c-.33-.18-.69-.24-1.05-.32-.49-.11-.98-.23-1.47-.33-.8-.17-1.6-.33-2.41-.49-.21-.04-.41-.06-.62-.09-.04,0-.08,0-.12,0v.02s.05,.04,.09,.05c.89,.21,1.78,.42,2.67,.64,.47,.11,.93,.25,1.39,.36,.47,.11,.95,.19,1.42,.29,.13,.03,.14,.03,.14,.16,0,.12,0,.24-.01,.36,0,.03-.05,.06-.08,.07-.03,.01-.06,0-.09,0-1.13-.23-2.26-.46-3.39-.69-.23-.05-.46-.07-.69-.11v.02Zm-.07-.04v-.03h-.12v.03h.12Z"/><path class="b" d="M113.36,13.43c-.1-.19-.12-.38-.05-.57,0-.01,.02-.03,.03-.03,.77-.45,1.47-1,2.17-1.55,.24-.19,.47-.4,.7-.6,.03-.03,.05-.07,.06-.11-.02,0-.04,.01-.06,.02-.12,.07-.24,.12-.35,.2-.77,.53-1.51,1.08-2.24,1.66-.07,.06-.15,.11-.22,.16-.03,.02-.05,.02-.07,0-.07-.08-.06-.18-.06-.27,0,0,.03-.02,.04-.02,.26,0,.47-.12,.67-.28,1.15-.94,2.31-1.87,3.47-2.8,1.15-.93,2.3-1.85,3.46-2.77,.09-.07,.19-.14,.29-.21,.09,.16,.06,.35-.08,.46-.71,.59-1.41,1.17-2.12,1.76-.1,.08-.18,.17-.27,.26v.02s.04,0,.06-.01c.06-.04,.12-.07,.17-.11,.53-.41,1.06-.83,1.59-1.25,.15-.12,.3-.25,.45-.37,.06-.05,.12-.08,.19-.14,.02,.05,.04,.09,.04,.13,0,.16,0,.31,0,.47,0,.04-.01,.07-.05,.1-.56,.5-1.12,.99-1.68,1.49-.32,.29-.64,.57-.97,.86-.02,.02-.04,.04-.05,.07,.02-.01,.04-.02,.06-.03,.31-.18,.58-.4,.85-.62,.59-.46,1.16-.94,1.71-1.45,.02-.02,.05-.06,.08-.03,.02,.02,.04,.05,.04,.08,0,.21,0,.43,0,.64,0,.03-.02,.07-.04,.1-.41,.42-.87,.78-1.32,1.15-.28,.23-.56,.47-.85,.7-.02,.01-.03,.03-.05,.05,.03,.05,.06,.04,.09,.01,.42-.3,.85-.6,1.26-.9,.27-.2,.54-.42,.81-.62,.02-.01,.06-.03,.07-.02,.02,.02,.04,.05,.04,.08,0,.14,0,.28,0,.42,0,.08-.03,.14-.09,.2-.1,.09-.21,.18-.31,.27-2.32,1.95-4.64,3.9-6.96,5.85-.12,.11-.25,.21-.38,.31-.02,.02-.04,.02-.08,.05-.02-.1-.05-.2-.05-.3-.01-.19-.02-.38-.01-.57,0-.04,.06-.08,.1-.11,.24-.14,.49-.27,.72-.41,.36-.23,.69-.5,1.02-.78,.68-.58,1.36-1.17,2.04-1.76,.02-.01,.03-.03,.05-.05-.04-.04-.08-.03-.11,0-.18,.13-.37,.27-.55,.4-.77,.59-1.53,1.18-2.3,1.77-.28,.21-.57,.4-.86,.59-.02,.02-.06,.02-.08,.01-.02,0-.03-.05-.03-.07,0-.2,0-.39,0-.59,0-.03,.02-.06,.04-.08,.23-.17,.46-.34,.69-.51,.05-.04,.11-.08,.12-.16-.1,0-.17,.05-.24,.1-.14,.1-.28,.21-.42,.31-.06,.04-.12,.08-.2,.13,0-.13-.02-.24-.02-.35,0-.02,.02-.04,.04-.06,.37-.28,.74-.57,1.1-.85,.41-.32,.82-.65,1.24-.97,.02-.02,.04-.03,.05-.05-.04-.05-.07-.04-.11-.01-.62,.33-1.19,.73-1.74,1.16-.16,.12-.32,.25-.47,.37-.02,.01-.03,.02-.05,.04Z"/><path class="b" d="M99.4,20.13c.39,.06,.77,.21,1.18,.18-.02,0-.04-.02-.06-.03-.3-.13-.62-.2-.93-.29-.08-.02-.16-.04-.24-.07-.02,0-.04-.03-.05-.05-.01-.03-.02-.07-.02-.11-.01-.06,.02-.09,.09-.08,.09,.02,.18,.05,.27,.07,1.13,.29,2.27,.52,3.42,.7,1.04,.16,2.08,.31,3.11,.46,.85,.12,1.7,.23,2.55,.35,.1,.01,.16,0,.23-.03-.19-.04-.37-.08-.56-.11-.81-.13-1.62-.26-2.43-.39-.96-.15-1.91-.31-2.87-.46-1.09-.17-2.17-.39-3.25-.62-.18-.04-.37-.08-.55-.11-.05-.01-.07-.04-.08-.09-.02-.14-.02-.22,.03-.32,.12,.02,.24,.05,.37,.07,.69,.12,1.37,.24,2.06,.36,.79,.14,1.58,.28,2.37,.42,.8,.15,1.6,.3,2.4,.46,.04,0,.08,0,.12,0v-.02s-.04-.01-.06-.02c-1.19-.34-2.4-.63-3.62-.84-1.11-.19-2.23-.37-3.34-.56-.09-.02-.19-.03-.28-.05-.02-.12,.03-.19,.15-.18,.19,.02,.37,.04,.56,.07,1.12,.18,2.25,.36,3.37,.55,.92,.15,1.84,.3,2.76,.45,.89,.15,1.79,.29,2.68,.44,.86,.14,1.73,.28,2.59,.42,1.06,.17,2.11,.35,3.17,.52,.52,.09,1.04,.18,1.56,.26,.07,.01,.15,0,.22-.01,.06,0,.08,.02,.08,.07,0,.11-.08,.19-.19,.18-.86-.12-1.72-.24-2.58-.36-.28-.04-.55-.08-.83-.12-.02,0-.03,0-.05,0,0,.06,.03,.08,.07,.09,.35,.07,.7,.16,1.06,.22,.77,.13,1.53,.25,2.3,.38,.11,.02,.1,0,.1,.12,0,.07-.02,.15-.03,.22,0,.05-.03,.07-.08,.06-.37-.05-.75-.1-1.12-.16-.65-.09-1.29-.19-1.94-.27-.23-.03-.47-.04-.71-.05v.03c.06,.02,.12,.05,.18,.06,.66,.12,1.32,.25,1.98,.36,.44,.08,.88,.13,1.32,.2,.09,.01,.18,.04,.27,.06,.05,0,.05,.05,.05,.08,0,.04-.03,.07-.07,.07-.07,0-.14,0-.21-.01-.4-.04-.8-.08-1.19-.12-.05,0-.11,0-.16,0v.03c.05,.02,.11,.06,.17,.07,.46,.08,.92,.15,1.38,.22,.04,0,.07,.03,.08,.07,.04,.1,.03,.21,.01,.33-.11,0-.21,0-.32,0-.26,0-.51-.06-.76-.1-1.34-.25-2.69-.49-4.03-.74-1.24-.23-2.48-.45-3.72-.68-1.32-.24-2.64-.48-3.96-.72-.91-.17-1.82-.33-2.73-.5-.37-.07-.74-.12-1.11-.18-.16-.03-.21-.08-.21-.26Z"/><path class="b" d="M116.51,21.17c-.17,.07-.32,.08-.48,.06-1.72-.28-3.44-.56-5.15-.84-1.24-.2-2.48-.41-3.73-.61-1.5-.25-3.01-.49-4.51-.73-.96-.16-1.92-.32-2.88-.48-.15-.02-.29-.06-.44-.09-.05-.01-.09,0-.1,.05,0,.03-.03,.05-.05,.07-.16,.15-.21,.33-.2,.54,.02,.3,.05,.61,.08,.91,.02,.16,.09,.3,.18,.43,.05,.08,.14,.12,.24,.14,.98,.12,1.93,.34,2.9,.51,1.27,.23,2.55,.46,3.82,.7,1.17,.22,2.34,.43,3.52,.65,1.28,.23,2.56,.47,3.85,.7,.65,.12,1.31,.24,1.96,.35,.23,.04,.46,.05,.69,.06,.06,0,.09,.02,.09,.08,0,.07,.02,.14,.03,.22-.11,0-.22,0-.32-.02-.6-.11-1.21-.23-1.81-.34-.55-.1-1.09-.19-1.64-.29-1.12-.2-2.24-.4-3.37-.59-1.21-.21-2.42-.43-3.63-.64-.99-.17-1.98-.35-2.96-.52-1.03-.18-2.05-.36-3.07-.54-.15-.03-.29-.08-.43-.13-.14-.05-.21-.16-.24-.3-.09-.35-.13-.71-.13-1.08,0-.32,.02-.64,.03-.96,0-.02,0-.05,0-.07,.03-.16,.11-.24,.28-.23,.18,.01,.36,.05,.53,.08,.94,.16,1.88,.32,2.82,.48,.96,.17,1.92,.33,2.89,.5,1.09,.19,2.17,.37,3.26,.56,1.09,.19,2.18,.37,3.26,.56,1.28,.22,2.56,.44,3.85,.66,.27,.05,.55,.09,.82,.14,0,0,.02,0,.05,.01Z"/><path class="b" d="M100.39,16.73c.12-.01,.22,.03,.32,.05,.45,.12,.89,.25,1.35,.34,.42,.09,.84,.13,1.27,.2,.12,.02,.24,.03,.36,.04,.03,0,.07,0,.1-.01,0,0-.01,0-.02-.01-.95-.17-1.88-.4-2.81-.62-.17-.04-.34-.08-.51-.12-.04,0-.05-.03-.06-.07-.01-.1-.03-.2,0-.31,.16,.04,.32,.08,.48,.13,1.1,.3,2.21,.51,3.34,.65,1.04,.13,2.09,.24,3.13,.37,.53,.06,1.05,.14,1.58,.21,.06,0,.09,.03,.08,.09-.03,.12-.05,.24-.09,.35-.03,.1-.09,.2-.13,.3-.03,.08,.04,.17,.12,.15,.1-.02,.19-.05,.28-.1,.1-.05,.2-.11,.3-.17,.01,0,.02-.02,.03-.03,.07-.08,.13-.16,.21-.23,.07-.07,.16-.14,.25-.22,.12,.19,.15,.39,.25,.59l-.45-.05v.02c.07,.03,.15,.07,.23,.1,.1,.03,.22,.04,.3,.1,.08,.06,.12,.17,.17,.26,.05,.08,.1,.16,.15,.25-.11-.02-.2-.03-.3-.05-.94-.16-1.89-.32-2.83-.48-1.15-.2-2.31-.4-3.46-.6-.96-.17-1.92-.33-2.87-.5-.15-.03-.29-.05-.44-.07-.14-.02-.23-.09-.26-.23-.03-.11-.04-.22-.07-.34Z"/><path class="b" d="M98.99,17.89c.08-.08,.16-.17,.25-.25,.12-.11,.25-.21,.37-.31,.04-.04,.09-.02,.12,.04,.06,.11,.12,.22,.2,.31,.13,.16,.32,.25,.52,.28,.87,.15,1.74,.3,2.61,.45,1.02,.17,2.04,.35,3.06,.52,1.12,.19,2.25,.38,3.37,.57,.95,.16,1.9,.32,2.85,.48,1.07,.18,2.13,.37,3.2,.55,.05,0,.09,0,.14,.01,.07,0,.13-.02,.18-.07,.28-.22,.5-.5,.72-.77,1.47-1.81,2.94-3.62,4.42-5.43,.1-.13,.16-.27,.17-.43,0-.14,.03-.27,.05-.41,0-.02,.02-.05,.04-.06,.11-.06,.23-.07,.35-.05,.07,.01,.14,.04,.21,.05,.04,0,.05,.03,.03,.06-.02,.05-.04,.1-.07,.14-.83,1.19-1.67,2.38-2.5,3.57-.7,.99-1.39,1.99-2.09,2.98-.06,.08-.12,.15-.19,.22-.03,.03-.09,.05-.13,.07-.13,.06-.18,.16-.15,.29,.02,.08-.03,.14-.06,.2,0,0-.04,0-.06,0-.33-.06-.66-.11-.98-.17-1.16-.2-2.32-.4-3.49-.6-1.01-.17-2.02-.35-3.03-.52-1.09-.19-2.18-.37-3.27-.56-1.08-.19-2.17-.37-3.25-.56-1.16-.2-2.33-.4-3.49-.6-.03,0-.06-.01-.09-.02v-.02Z"/><path class="b" d="M119.24,14.12c.09-.09,.18-.17,.25-.26,.23-.27,.46-.54,.69-.81,.08-.09,.17-.18,.25-.27,.02-.02,.03-.03,.06-.06,.01,.07,.04,.13,.04,.19,0,.28,0,.56,.05,.83,0,.03,0,.06-.02,.08-.08,.13-.16,.27-.25,.39-.33,.39-.66,.78-.99,1.17-1.12,1.32-2.25,2.64-3.37,3.96-.08,.09-.16,.17-.23,.26-.09-.07-.12-.18-.05-.27,.05-.08,.12-.15,.18-.22,.13-.15,.26-.31,.4-.48-.09,.02-.15,.05-.21,.1-.06,.06-.11,.13-.17,.19-.05,.05-.1,.09-.16,.15-.03-.14-.03-.26,.02-.36,.04-.09,.1-.17,.17-.25,.5-.57,1.01-1.13,1.51-1.7,.21-.24,.4-.49,.6-.73,.01-.02,.02-.03,.03-.06-.02,.02-.04,.03-.06,.05-.48,.4-.9,.85-1.31,1.32-.25,.28-.49,.55-.74,.83-.01,.02-.03,.03-.05,.05-.05-.07-.06-.12,0-.19,.06-.08,.12-.16,.18-.23,.42-.46,.84-.93,1.26-1.39,.09-.09,.16-.2,.24-.3,.01-.02,.02-.04,.04-.06l-.02-.02c-.07,.06-.15,.11-.21,.18-.34,.36-.68,.73-1.02,1.1-.09,.09-.17,.18-.27,.27-.01-.11-.05-.2,.04-.31,1.45-1.71,2.89-3.42,4.33-5.13,0,0,0-.01,.02-.02,.02-.01,.03-.02,.05-.03,.01,.02,.03,.04,.03,.05,.03,.11,0,.22-.05,.32-.02,.04-.05,.08-.08,.12-.35,.43-.7,.86-1.05,1.28-.02,.03-.05,.06-.07,.09-.03,.04-.05,.08-.03,.15Zm1.15-.93c-.11,0-.17,.08-.17,.18l.17-.18Z"/><path class="b" d="M106.39,16.65c-.02-.07-.06-.08-.11-.09-.49-.1-.99-.2-1.48-.3-1.38-.26-2.76-.52-4.14-.78-.06-.01-.12-.03-.18-.05-.09-.02-.12-.07-.11-.16,.01-.1,.06-.13,.15-.12,1.51,.24,3.03,.48,4.54,.72,1.3,.21,2.6,.41,3.9,.61,.06,0,.1,.04,.1,.09,0,.07,0,.14,0,.2,0,.02-.05,.04-.09,.05-.09,0-.18,0-.26,0v.02s.05,.04,.09,.05c.06,.02,.13,.04,.19,.06,.04,.01,.06,.04,.07,.09,.02,.14,0,.27-.05,.4-.01,.03-.03,.04-.06,.03-.69-.11-1.37-.22-2.06-.32-.75-.11-1.49-.22-2.24-.32-.92-.13-1.84-.24-2.75-.42-.5-.1-.99-.2-1.48-.3-.03,0-.06-.03-.07-.06-.06-.14-.02-.28,0-.42,0-.01,.03-.03,.05-.03,.08,0,.16,0,.24,.01,.47,.11,.94,.24,1.41,.33,.72,.14,1.45,.26,2.18,.38,.59,.09,1.17,.17,1.76,.26,.14,.02,.27,.04,.42,.05Z"/><path class="b" d="M116.57,22.26c-.01-.21,0-.4,.17-.57,.08-.08,.16-.18,.22-.27,.65-.96,1.29-1.92,1.94-2.88,.04-.05,.06-.11,.09-.17h-.02s-.1,.08-.15,.13c-.09,.1-.17,.2-.25,.31-.57,.83-1.13,1.66-1.69,2.49-.04,.06-.08,.1-.16,.08,.01-.02,.02-.05,.03-.07,.24-.45,.53-.87,.82-1.29,1.32-1.89,2.64-3.77,3.96-5.66,.07-.1,.14-.19,.22-.3,.04,.19,.04,.35-.06,.51-.11,.18-.22,.36-.34,.53-.42,.61-.84,1.21-1.27,1.81-.03,.05-.05,.1-.07,.16,.06,0,.09-.04,.12-.08,.38-.52,.76-1.04,1.14-1.57,.11-.15,.21-.3,.31-.44,.01-.02,.04-.04,.06-.04,.04,0,.06,.04,.06,.09,0,.08-.02,.17-.02,.25-.01,.13-.03,.26-.04,.39-.01,.11-.06,.21-.12,.3-1.55,2.31-3.1,4.62-4.65,6.94-.06,.09-.12,.17-.19,.25-.02,.02-.06,.04-.08,.03-.03-.01-.06-.04-.07-.07-.03-.1,0-.19,.06-.28,.15-.21,.29-.43,.43-.64,.01-.02,.02-.04,.03-.06-.12,0-.15,.15-.28,.15l.33-.57h0s-.07,.02-.09,.05c-.1,.13-.19,.26-.29,.39-.03,.04-.07,.08-.11,.11l-.02-.02Zm3.43-5.15c-.07,.02-.08,.06-.06,.16l.06-.16Zm-2.88,4.59l.08-.1c-.05,0-.1,.02-.08,.1Z"/><path class="b" d="M110.62,18.61c-.1-.02-.15-.07-.18-.15-.06-.19-.13-.37-.19-.56-.03-.1-.07-.21-.1-.31-.01-.03-.02-.06-.04-.09-.06-.09-.11-.11-.2-.05-.09,.06-.18,.14-.27,.21-.13,.1-.25,.21-.37,.31-.05,.04-.11,.07-.19,.11,0-.06,0-.11,.01-.15,.11-.45,.14-.91,.21-1.37,.07-.44,.03-.88,.03-1.32,0-.4-.01-.8,0-1.2,.01-.29,.06-.59,.1-.88,0-.05,.03-.1,.04-.15,0-.04,.03-.05,.07-.04,.21,.04,.41,.07,.62,.12,.27,.07,.54,.15,.81,.22,.05,.01,.08,.05,.08,.1,0,.16,0,.31-.03,.47-.05,.41-.07,.83-.08,1.24-.01,.72-.08,1.43-.18,2.15-.05,.38-.08,.77-.12,1.15,0,.06-.02,.13-.03,.2Z"/><path class="b" d="M109.01,16.22c-.1,0-.2,0-.3-.02-1.01-.16-2.01-.32-3.02-.48-.9-.14-1.8-.28-2.71-.42-.81-.13-1.62-.26-2.44-.39-.1-.02-.21-.01-.31-.02-.02,0-.04,0-.06,0-.08,.02-.1,.06-.1,.14,0,.41,.01,.83,.03,1.24,0,.29,.05,.58,.12,.87,.06,.24,.2,.36,.45,.4,.93,.15,1.86,.32,2.79,.48,1.16,.2,2.31,.4,3.47,.59,1.02,.17,2.04,.35,3.05,.52,1.16,.2,2.33,.4,3.49,.6,.65,.11,1.3,.23,1.96,.34,.1,.02,.19,.06,.21,.18-.1,0-.2,.01-.3,0-1.77-.3-3.53-.6-5.3-.91-1.49-.26-2.98-.51-4.47-.77-1.49-.25-2.98-.51-4.47-.76-.23-.04-.45-.08-.68-.11-.2-.03-.33-.14-.38-.33-.1-.33-.16-.66-.13-1.01,.01-.17-.01-.33-.02-.5-.02-.34,.01-.68,.07-1.01,.02-.09,.04-.11,.13-.13,.23-.04,.46,0,.69,.03,1.19,.2,2.37,.4,3.56,.6,1,.17,2,.34,3,.51,.47,.08,.94,.15,1.41,.23,.09,.02,.18,.05,.27,.08v.04Z"/><path class="b" d="M115.44,18.65c-.15-.03-.29-.05-.44-.08-.75-.15-1.49-.3-2.24-.44-.45-.08-.9-.15-1.36-.15-.04,0-.07,0-.11,0v.03c.11,.03,.21,.07,.33,.09,1.07,.15,2.14,.34,3.2,.56,.17,.04,.35,.06,.52,.08,.04,0,.06,.02,.06,.06,0,.1,0,.2-.03,.29-.03,.07-.04,.08-.12,.07-.06,0-.11-.02-.17-.03-1.17-.19-2.34-.38-3.51-.57l-.56-.09h0c-.15-.03-.16-.04-.15-.19,.02-.25,.03-.5,.05-.75,0-.01,0-.03,0-.04,.02-.11,.05-.13,.16-.11,.26,.04,.52,.08,.78,.12,1.08,.17,2.15,.35,3.23,.52,.14,.02,.27,.05,.41,.08,.05,.01,.06,.04,.05,.09-.03,.13-.05,.26-.08,.39,0,.02,0,.03-.02,.06Z"/><path class="b" d="M114.82,16.65c.04-.06,.07-.11,.11-.14,.99-.87,1.98-1.73,2.97-2.59,.75-.65,1.49-1.3,2.24-1.95,.02-.02,.04-.03,.06-.05l.05,.04-.05,.06c-1.35,1.61-2.69,3.22-4.04,4.83-.03,.04-.06,.05-.12,.04-.38-.08-.76-.15-1.13-.22-.02,0-.04,0-.08-.02Z"/><path class="b" d="M122.11,9.65s-.04,.04-.06,.05c-2.76,2.32-5.51,4.64-8.27,6.96-.04,.03-.07,.05-.12,.03-.08-.03-.17-.05-.27-.08,.08-.07,.14-.14,.21-.2,.51-.43,1.02-.86,1.53-1.29,1.94-1.64,3.89-3.27,5.83-4.91,.18-.15,.35-.31,.53-.47,.02-.02,.03-.05,.03-.08,0-.05,0-.1-.01-.16,0-.05,.02-.08,.07-.07,.18,.04,.36,.1,.53,.21Z"/><path class="b" d="M99.32,12.3c.18,.05,.36,.09,.54,.15,2.19,.67,4.4,1.29,6.62,1.84,.83,.2,1.66,.39,2.5,.59,.11,.03,.15,.08,.15,.19,0,.06-.02,.11-.03,.18-.11-.02-.21-.03-.31-.06-2.89-.75-5.78-1.5-8.67-2.25-.17-.04-.33-.1-.49-.16-.1-.03-.18-.09-.22-.19-.04-.09-.07-.18-.11-.27l.02-.02Z"/><path class="b" d="M105.93,15.37c-.29-.05-.58-.09-.86-.14-1.18-.2-2.36-.39-3.55-.59-.41-.07-.82-.14-1.23-.2-.09-.02-.12-.04-.09-.13,.02-.07,.05-.15,.1-.21,.07-.09,.15-.16,.23-.23,.02-.01,.05-.02,.07-.01,.2,.05,.4,.09,.6,.15,1.52,.41,3.03,.83,4.55,1.24,.04,.01,.08,.02,.11,.04,.04,.01,.06,.04,.06,.09Z"/><path class="b" d="M111.21,14.83c.13,.03,.25,.05,.37,.08,.48,.13,.95,.26,1.42,.38,.06,.02,.08,.04,.08,.1,0,.27,.02,.54,.04,.81,0,.03,0,.06,0,.09-.03,0-.05,0-.07-.02-.6-.16-1.2-.31-1.81-.47-.03,0-.06-.01-.06-.06-.02-.29-.01-.58,.02-.87,0-.01,0-.03,.01-.06Z"/><path class="b" d="M110.94,18.61c.21,.04,.41,.07,.62,.11,1.24,.23,2.49,.47,3.73,.7,.06,.01,.1,.03,.1,.1,0,.06,.02,.12,.03,.17,.01,.08-.02,.11-.1,.1-.22-.04-.43-.07-.65-.11-1.21-.2-2.41-.41-3.62-.61-.13-.02-.13-.02-.15-.15-.01-.07-.03-.14-.04-.21-.01-.06,.02-.1,.08-.1Z"/><path class="b" d="M115.62,17.26s0,.05,0,.08c-.03,.13-.02,.25,0,.38,.01,.06,0,.13-.01,.2-.01,.05-.06,.07-.11,.04-.39-.19-.82-.23-1.24-.3-.69-.11-1.38-.21-2.07-.32-.37-.06-.75-.11-1.12-.17-.08-.01-.1-.04-.08-.12,.05-.22,.05-.21,.27-.2,.48,.04,.95,.14,1.41,.28,.31,.1,.63,.18,.94,.26,.24,.07,.44,.02,.58-.22,.03-.05,.07-.08,.14-.08,.42,0,.84,.08,1.26,.15,.01,0,.02,0,.04,.01Z"/><path class="b" d="M122.11,15.68c-.03,.1-.05,.19-.08,.27-.04,.09-.09,.18-.14,.27-.06,.12-.15,.22-.25,.3-.03,.02-.06,.06-.08,.09-.38,.57-.76,1.14-1.14,1.71-1.14,1.71-2.29,3.42-3.43,5.14-.02,.02-.03,.05-.05,.07-.11,.17-.12,.17-.32,.15-.02,0-.04-.02-.05-.03-.01-.05-.02-.1-.02-.15h.01c.2-.04,.32-.17,.43-.32,.29-.43,.58-.87,.87-1.3,1.18-1.76,2.36-3.53,3.55-5.29,.08-.12,.19-.23,.28-.35,.04-.06,.08-.12,.12-.18,.05-.09,.09-.18,.13-.26,.03-.06,.07-.1,.17-.11Z"/><path class="b" d="M111.33,13.87l.35,.09c.44,.11,.87,.23,1.31,.34,.04,.01,.06,.03,.06,.07,0,.2,0,.41,.01,.61,0,.02,0,.03,0,.06-.06,0-.11-.01-.16-.02-.54-.11-1.06-.25-1.58-.42-.04-.01-.07-.04-.07-.08,0-.06,0-.13,0-.19,.02-.15,.05-.3,.08-.46Z"/><path class="b" d="M120.35,14.54l.06,.05c-.04,.06-.08,.12-.12,.17-1.36,1.67-2.72,3.35-4.07,5.02-.05,.06-.09,.12-.14,.17-.06,.06-.12,.07-.18,.03-.06-.04-.07-.09-.02-.14,.22-.26,.44-.52,.67-.79,1.25-1.48,2.5-2.95,3.75-4.43l.07-.08Z"/><path class="b" d="M113.04,13.73v.39c-.08-.01-.16-.02-.24-.04-.46-.1-.92-.2-1.39-.3-.04,0-.05-.02-.06-.06-.03-.09-.03-.19,0-.28,0-.02,.03-.04,.06-.05,.02,0,.05,0,.08,0,.5,.1,1,.21,1.5,.31,.02,0,.03,0,.05,.01Z"/><path class="b" d="M113.62,17.12c-.07-.01-.14-.01-.21-.03-.69-.19-1.38-.38-2.07-.57-.04-.01-.08-.02-.12-.03-.05-.02-.1-.09-.08-.13,.01-.04,.07-.07,.13-.06,.23,.06,.46,.13,.69,.19,.5,.13,1.01,.26,1.52,.39,.13,.03,.18,.1,.15,.25Z"/><path class="b" d="M113.94,16.88s.07-.09,.11-.13c.59-.5,1.18-1.01,1.79-1.5,.16-.13,.31-.26,.46-.39,.04-.03,.09-.05,.14-.07v.02s-.05,.09-.1,.12c-.26,.19-.48,.43-.72,.64-.46,.4-.91,.8-1.37,1.2-.04,.04-.09,.07-.13,.1-.05,.04-.1,.04-.17,0Z"/><path class="b" d="M116.55,14.7c.04-.09,.13-.17,.22-.19-.04,.09-.13,.17-.22,.19Z"/><path class="b" d="M120.5,14.39l.19-.24c-.01,.13-.08,.2-.19,.24Z"/><path class="b" d="M116.67,22.47l.05-.15h.03l-.05,.16h-.02Z"/><path class="b" d="M106.13,15.35c-.05,.06-.09,.06-.14,.02l.14-.02Z"/><path class="b" d="M117.19,14.13c-.04,.1-.06,.11-.1,.09l.1-.09Z"/><path d="M114.02,10.55s-.02,.05-.03,.07c-.13,.13-.25,.25-.38,.37-.15,.14-.33,.22-.54,.18-.27-.05-.54-.11-.81-.17-.6-.14-1.2-.3-1.8-.44-.08-.02-.14-.05-.2-.13,.03,0,.05,0,.07,0,.29,.01,.58,.09,.87,.15,.41,.08,.81,.17,1.22,.26,.09,.02,.19,.05,.28,.08,.26,.09,.5,.08,.74-.07,.17-.11,.36-.19,.54-.29,.01,0,.03-.01,.04-.02h.02Z"/><path d="M102.27,7.81l-1.24,.76v.02c.11,.03,.22,.06,.33,.07,.47,.05,.91,.2,1.36,.3,0,0,.02,0,.02,.02-.05,0-.1,.01-.15,0-.16-.02-.31-.04-.47-.06-.36-.05-.73-.1-1.09-.15-.12-.02-.23-.06-.34-.13,.06-.06,.11-.14,.18-.18,.42-.28,.87-.51,1.35-.67,0,0,.02,0,.03,0h0Z"/><path d="M110.59,3.34c.07,0,.14,0,.21,.01,.61,.08,1.21,.18,1.8,.35,.17,.05,.34,.1,.49,.2l.05,.04c-.09,0-.16,.01-.22,0-.65-.13-1.31-.27-1.96-.41-.1-.02-.19-.05-.29-.08-.03-.01-.06-.04-.09-.06v-.04Z"/><path d="M120.11,5.88c-.02-.07,.02-.1,.06-.13,.09-.07,.18-.14,.28-.22-.1-.03-.18-.05-.26-.07-.32-.1-.64-.2-.96-.3-.01,0-.02-.03-.03-.04,.02,0,.03-.03,.05-.02,.14,.02,.29,.05,.43,.08,.32,.07,.64,.15,.96,.22,.1,.02,.11,.07,.05,.14-.15,.18-.35,.28-.57,.35Z"/><path d="M110.38,3.36c-.23,.18-.51,.27-.79,.37,.01-.02,.02-.03,.04-.05,.14-.16,.32-.28,.52-.34,.07-.02,.15,0,.23-.01v.03Z"/><path d="M108.72,12.63h-.12v-.02h.12v.02Z"/><path d="M120.39,13.19l-.17,.18c0-.09,.06-.17,.17-.18Z"/><path d="M120,17.11l-.06,.16c-.02-.1,0-.14,.06-.16Z"/><path d="M117.11,21.7c-.02-.08,.02-.09,.08-.1l-.08,.1Z"/></g></svg>